<svg width="1200" height="900" viewBox="0 0 1200 900" fill="none" xmlns="http://www.w3.org/2000/svg">
  <defs>
    <linearGradient id="g" x1="0" y1="0" x2="1" y2="1">
      <stop offset="0%" stop-color="#8B5CF6"/>
      <stop offset="100%" stop-color="#EC4899"/>
    </linearGradient>
    <filter id="shadow" x="-20%" y="-20%" width="140%" height="140%">
      <feDropShadow dx="0" dy="8" stdDeviation="16" flood-color="#000" flood-opacity="0.15"/>
    </filter>
  </defs>
  <rect width="1200" height="900" fill="#0B0B0B"/>
  <g transform="translate(100,80)" filter="url(#shadow)">
    <rect width="1000" height="740" rx="20" fill="#111318" stroke="#2A2E37"/>
    <rect x="24" y="24" width="180" height="36" rx="8" fill="url(#g)"/>
    <rect x="220" y="24" width="120" height="36" rx="8" fill="#1C1F27" stroke="#2A2E37"/>
    <rect x="352" y="24" width="120" height="36" rx="8" fill="#1C1F27" stroke="#2A2E37"/>

    <g transform="translate(24,84)">
      <rect width="280" height="140" rx="12" fill="#111318" stroke="#2A2E37"/>
      <rect x="16" y="16" width="160" height="20" rx="4" fill="#2F3440"/>
      <rect x="16" y="48" width="240" height="12" rx="3" fill="#1C1F27"/>
      <rect x="16" y="68" width="210" height="12" rx="3" fill="#1C1F27"/>
      <rect x="16" y="88" width="180" height="12" rx="3" fill="#1C1F27"/>
    </g>

    <g transform="translate(24,244)">
      <rect width="280" height="460" rx="12" fill="#111318" stroke="#2A2E37"/>
      <rect x="16" y="16" width="120" height="16" rx="4" fill="#2F3440"/>
      <rect x="16" y="48" width="248" height="12" rx="3" fill="#1C1F27"/>
      <rect x="16" y="72" width="200" height="12" rx="3" fill="#1C1F27"/>
      <rect x="16" y="108" width="248" height="64" rx="8" fill="#151922"/>
      <rect x="16" y="184" width="248" height="64" rx="8" fill="#151922"/>
      <rect x="16" y="260" width="248" height="64" rx="8" fill="#151922"/>
      <rect x="16" y="336" width="248" height="64" rx="8" fill="#151922"/>
    </g>

    <g transform="translate(328,84)">
      <rect width="648" height="620" rx="12" fill="#111318" stroke="#2A2E37"/>
      <rect x="16" y="16" width="240" height="16" rx="4" fill="#2F3440"/>
      <rect x="16" y="48" width="280" height="12" rx="3" fill="#1C1F27"/>
      <rect x="16" y="68" width="248" height="12" rx="3" fill="#1C1F27"/>
      <g transform="translate(16,108)">
        <rect width="616" height="120" rx="10" fill="#151922"/>
        <rect x="16" y="16" width="140" height="16" rx="4" fill="#2F3440"/>
        <rect x="16" y="44" width="440" height="12" rx="3" fill="#1C1F27"/>
        <rect x="16" y="64" width="400" height="12" rx="3" fill="#1C1F27"/>
        <rect x="560" y="24" width="40" height="40" rx="8" fill="url(#g)"/>
      </g>
      <g transform="translate(16,244)">
        <rect width="616" height="120" rx="10" fill="#151922"/>
        <rect x="16" y="16" width="140" height="16" rx="4" fill="#2F3440"/>
        <rect x="16" y="44" width="470" height="12" rx="3" fill="#1C1F27"/>
        <rect x="16" y="64" width="380" height="12" rx="3" fill="#1C1F27"/>
        <rect x="560" y="24" width="40" height="40" rx="8" fill="#2F3440"/>
      </g>
      <g transform="translate(16,380)">
        <rect width="616" height="120" rx="10" fill="#151922"/>
        <rect x="16" y="16" width="140" height="16" rx="4" fill="#2F3440"/>
        <rect x="16" y="44" width="420" height="12" rx="3" fill="#1C1F27"/>
        <rect x="16" y="64" width="360" height="12" rx="3" fill="#1C1F27"/>
        <rect x="560" y="24" width="40" height="40" rx="8" fill="#2F3440"/>
      </g>
    </g>
  </g>
</svg>
